<svg width="22" height="22" viewBox="0 0 22 22" fill="none" xmlns="http://www.w3.org/2000/svg">
<path d="M21.633 11.578C20.4513 7.77609 16.7008 5.18154 12.2053 5.10448V0.660353C12.2053 0.454844 12.0255 0.275024 11.82 0.275024C11.7429 0.275024 11.6658 0.300713 11.5888 0.35209L0.157342 8.62381C-0.0224775 8.75225 -0.0481661 8.98345 0.0802768 9.16327C0.105965 9.18896 0.131654 9.21465 0.157342 9.24033L11.5888 17.4607C11.7686 17.5891 11.9998 17.5377 12.1282 17.3836C12.1796 17.3065 12.2053 17.2295 12.2053 17.1524V12.734C14.9796 12.734 17.3173 14.0441 18.1393 16.0221C18.8329 17.7176 18.2678 19.5415 16.6237 21.0571C16.4696 21.2112 16.4439 21.4424 16.598 21.5965C16.6751 21.6736 16.7778 21.725 16.8806 21.725H17.1889C17.2659 21.725 17.343 21.6993 17.3944 21.6479C21.1706 19.1561 22.789 15.2771 21.633 11.578Z" fill="#73738D"/>
</svg>
