<svg width="19" height="12" viewBox="0 0 19 12" fill="none" xmlns="http://www.w3.org/2000/svg">
<path d="M8.75862 0.303091L0.303534 8.75833C0.10782 8.95389 0 9.21495 0 9.4933C0 9.77166 0.10782 10.0327 0.303534 10.2283L0.926049 10.8509C1.33169 11.2561 1.99097 11.2561 2.39599 10.8509L9.49606 3.75087L16.604 10.8588C16.7997 11.0544 17.0606 11.1624 17.3388 11.1624C17.6173 11.1624 17.8782 11.0544 18.0741 10.8588L18.6965 10.2361C18.8922 10.0404 19 9.77954 19 9.50118C19 9.22282 18.8922 8.96177 18.6965 8.76621L10.2337 0.303091C10.0373 0.107068 9.77519 -0.000597 9.49652 2.09808e-05C9.21678 -0.000597 8.9548 0.107068 8.75862 0.303091Z" fill="#73738D"/>
</svg>
