<svg width="144" height="141" viewBox="0 0 144 141" fill="none" xmlns="http://www.w3.org/2000/svg">
<g filter="url(#filter0_ii)">
<path d="M139.72 139.006C141.34 139.006 142.653 137.636 142.653 135.945C142.653 134.254 141.34 132.883 139.72 132.883C138.099 132.883 136.786 134.254 136.786 135.945C136.786 137.636 138.099 139.006 139.72 139.006Z" stroke="url(#paint0_linear)" stroke-opacity="0.5" stroke-width="2" stroke-linecap="round" stroke-linejoin="round"/>
<path d="M139.72 112.543C141.34 112.543 142.653 111.172 142.653 109.481C142.653 107.79 141.34 106.42 139.72 106.42C138.099 106.42 136.786 107.79 136.786 109.481C136.786 111.172 138.099 112.543 139.72 112.543Z" stroke="url(#paint1_linear)" stroke-opacity="0.5" stroke-width="2" stroke-linecap="round" stroke-linejoin="round"/>
<path d="M139.72 86.0758C141.34 86.0758 142.653 84.7049 142.653 83.014C142.653 81.323 141.34 79.9521 139.72 79.9521C138.099 79.9521 136.786 81.323 136.786 83.014C136.786 84.7049 138.099 86.0758 139.72 86.0758Z" stroke="url(#paint2_linear)" stroke-opacity="0.5" stroke-width="2" stroke-linecap="round" stroke-linejoin="round"/>
<path d="M139.72 59.8267C141.34 59.8267 142.653 58.4559 142.653 56.7649C142.653 55.0739 141.34 53.7031 139.72 53.7031C138.099 53.7031 136.786 55.0739 136.786 56.7649C136.786 58.4559 138.099 59.8267 139.72 59.8267Z" stroke="url(#paint3_linear)" stroke-opacity="0.5" stroke-width="2" stroke-linecap="round" stroke-linejoin="round"/>
<path d="M139.72 33.3682C141.34 33.3682 142.653 31.9974 142.653 30.3064C142.653 28.6154 141.34 27.2446 139.72 27.2446C138.099 27.2446 136.786 28.6154 136.786 30.3064C136.786 31.9974 138.099 33.3682 139.72 33.3682Z" stroke="url(#paint4_linear)" stroke-opacity="0.5" stroke-width="2" stroke-linecap="round" stroke-linejoin="round"/>
<path d="M139.72 7.1236C141.34 7.1236 142.653 5.75278 142.653 4.0618C142.653 2.37081 141.34 1 139.72 1C138.099 1 136.786 2.37081 136.786 4.0618C136.786 5.75278 138.099 7.1236 139.72 7.1236Z" stroke="url(#paint5_linear)" stroke-opacity="0.5" stroke-width="2" stroke-linecap="round" stroke-linejoin="round"/>
<path d="M112.686 139.006C114.306 139.006 115.619 137.636 115.619 135.945C115.619 134.254 114.306 132.883 112.686 132.883C111.066 132.883 109.752 134.254 109.752 135.945C109.752 137.636 111.066 139.006 112.686 139.006Z" stroke="url(#paint6_linear)" stroke-opacity="0.5" stroke-width="2" stroke-linecap="round" stroke-linejoin="round"/>
<path d="M112.686 112.543C114.306 112.543 115.619 111.172 115.619 109.481C115.619 107.79 114.306 106.42 112.686 106.42C111.066 106.42 109.752 107.79 109.752 109.481C109.752 111.172 111.066 112.543 112.686 112.543Z" stroke="url(#paint7_linear)" stroke-opacity="0.5" stroke-width="2" stroke-linecap="round" stroke-linejoin="round"/>
<path d="M112.686 86.0758C114.306 86.0758 115.619 84.7049 115.619 83.014C115.619 81.323 114.306 79.9521 112.686 79.9521C111.066 79.9521 109.752 81.323 109.752 83.014C109.752 84.7049 111.066 86.0758 112.686 86.0758Z" stroke="url(#paint8_linear)" stroke-opacity="0.5" stroke-width="2" stroke-linecap="round" stroke-linejoin="round"/>
<path d="M112.686 59.8267C114.306 59.8267 115.619 58.4559 115.619 56.7649C115.619 55.0739 114.306 53.7031 112.686 53.7031C111.066 53.7031 109.752 55.0739 109.752 56.7649C109.752 58.4559 111.066 59.8267 112.686 59.8267Z" stroke="url(#paint9_linear)" stroke-opacity="0.5" stroke-width="2" stroke-linecap="round" stroke-linejoin="round"/>
<path d="M112.686 33.3682C114.306 33.3682 115.619 31.9974 115.619 30.3064C115.619 28.6154 114.306 27.2446 112.686 27.2446C111.066 27.2446 109.752 28.6154 109.752 30.3064C109.752 31.9974 111.066 33.3682 112.686 33.3682Z" stroke="url(#paint10_linear)" stroke-opacity="0.5" stroke-width="2" stroke-linecap="round" stroke-linejoin="round"/>
<path d="M112.686 7.1236C114.307 7.1236 115.62 5.75278 115.62 4.0618C115.62 2.37081 114.307 1 112.686 1C111.066 1 109.753 2.37081 109.753 4.0618C109.753 5.75278 111.066 7.1236 112.686 7.1236Z" stroke="url(#paint11_linear)" stroke-opacity="0.5" stroke-width="2" stroke-linecap="round" stroke-linejoin="round"/>
<path d="M85.4456 139.006C87.0658 139.006 88.3792 137.636 88.3792 135.945C88.3792 134.254 87.0658 132.883 85.4456 132.883C83.8255 132.883 82.5121 134.254 82.5121 135.945C82.5121 137.636 83.8255 139.006 85.4456 139.006Z" stroke="url(#paint12_linear)" stroke-opacity="0.5" stroke-width="2" stroke-linecap="round" stroke-linejoin="round"/>
<path d="M85.4456 112.543C87.0658 112.543 88.3792 111.172 88.3792 109.481C88.3792 107.79 87.0658 106.42 85.4456 106.42C83.8255 106.42 82.5121 107.79 82.5121 109.481C82.5121 111.172 83.8255 112.543 85.4456 112.543Z" stroke="url(#paint13_linear)" stroke-opacity="0.5" stroke-width="2" stroke-linecap="round" stroke-linejoin="round"/>
<path d="M85.4456 86.0758C87.0658 86.0758 88.3792 84.7049 88.3792 83.014C88.3792 81.323 87.0658 79.9521 85.4456 79.9521C83.8255 79.9521 82.5121 81.323 82.5121 83.014C82.5121 84.7049 83.8255 86.0758 85.4456 86.0758Z" stroke="url(#paint14_linear)" stroke-opacity="0.5" stroke-width="2" stroke-linecap="round" stroke-linejoin="round"/>
<path d="M85.4456 59.8267C87.0658 59.8267 88.3792 58.4559 88.3792 56.7649C88.3792 55.0739 87.0658 53.7031 85.4456 53.7031C83.8255 53.7031 82.5121 55.0739 82.5121 56.7649C82.5121 58.4559 83.8255 59.8267 85.4456 59.8267Z" stroke="url(#paint15_linear)" stroke-opacity="0.5" stroke-width="2" stroke-linecap="round" stroke-linejoin="round"/>
<path d="M85.4456 33.3682C87.0658 33.3682 88.3792 31.9974 88.3792 30.3064C88.3792 28.6154 87.0658 27.2446 85.4456 27.2446C83.8255 27.2446 82.5121 28.6154 82.5121 30.3064C82.5121 31.9974 83.8255 33.3682 85.4456 33.3682Z" stroke="url(#paint16_linear)" stroke-opacity="0.5" stroke-width="2" stroke-linecap="round" stroke-linejoin="round"/>
<path d="M85.4465 7.1236C87.0666 7.1236 88.38 5.75278 88.38 4.0618C88.38 2.37081 87.0666 1 85.4465 1C83.8263 1 82.5129 2.37081 82.5129 4.0618C82.5129 5.75278 83.8263 7.1236 85.4465 7.1236Z" stroke="url(#paint17_linear)" stroke-opacity="0.5" stroke-width="2" stroke-linecap="round" stroke-linejoin="round"/>
<path d="M58.2055 139.006C59.8256 139.006 61.139 137.636 61.139 135.945C61.139 134.254 59.8256 132.883 58.2055 132.883C56.5853 132.883 55.2719 134.254 55.2719 135.945C55.2719 137.636 56.5853 139.006 58.2055 139.006Z" stroke="url(#paint18_linear)" stroke-opacity="0.5" stroke-width="2" stroke-linecap="round" stroke-linejoin="round"/>
<path d="M58.2055 112.543C59.8256 112.543 61.139 111.172 61.139 109.481C61.139 107.79 59.8256 106.42 58.2055 106.42C56.5853 106.42 55.2719 107.79 55.2719 109.481C55.2719 111.172 56.5853 112.543 58.2055 112.543Z" stroke="url(#paint19_linear)" stroke-opacity="0.5" stroke-width="2" stroke-linecap="round" stroke-linejoin="round"/>
<path d="M58.2055 86.0758C59.8256 86.0758 61.139 84.7049 61.139 83.014C61.139 81.323 59.8256 79.9521 58.2055 79.9521C56.5853 79.9521 55.2719 81.323 55.2719 83.014C55.2719 84.7049 56.5853 86.0758 58.2055 86.0758Z" stroke="url(#paint20_linear)" stroke-opacity="0.5" stroke-width="2" stroke-linecap="round" stroke-linejoin="round"/>
<path d="M58.2055 59.8267C59.8256 59.8267 61.139 58.4559 61.139 56.7649C61.139 55.0739 59.8256 53.7031 58.2055 53.7031C56.5853 53.7031 55.2719 55.0739 55.2719 56.7649C55.2719 58.4559 56.5853 59.8267 58.2055 59.8267Z" stroke="url(#paint21_linear)" stroke-opacity="0.5" stroke-width="2" stroke-linecap="round" stroke-linejoin="round"/>
<path d="M58.2055 33.3682C59.8256 33.3682 61.139 31.9974 61.139 30.3064C61.139 28.6154 59.8256 27.2446 58.2055 27.2446C56.5853 27.2446 55.2719 28.6154 55.2719 30.3064C55.2719 31.9974 56.5853 33.3682 58.2055 33.3682Z" stroke="url(#paint22_linear)" stroke-opacity="0.5" stroke-width="2" stroke-linecap="round" stroke-linejoin="round"/>
<path d="M58.2067 7.1236C59.8269 7.1236 61.1403 5.75278 61.1403 4.0618C61.1403 2.37081 59.8269 1 58.2067 1C56.5866 1 55.2732 2.37081 55.2732 4.0618C55.2732 5.75278 56.5866 7.1236 58.2067 7.1236Z" stroke="url(#paint23_linear)" stroke-opacity="0.5" stroke-width="2" stroke-linecap="round" stroke-linejoin="round"/>
<path d="M30.9653 139.006C32.5855 139.006 33.8988 137.636 33.8988 135.945C33.8988 134.254 32.5855 132.883 30.9653 132.883C29.3451 132.883 28.0317 134.254 28.0317 135.945C28.0317 137.636 29.3451 139.006 30.9653 139.006Z" stroke="url(#paint24_linear)" stroke-opacity="0.5" stroke-width="2" stroke-linecap="round" stroke-linejoin="round"/>
<path d="M30.9653 112.543C32.5855 112.543 33.8988 111.172 33.8988 109.481C33.8988 107.79 32.5855 106.42 30.9653 106.42C29.3451 106.42 28.0317 107.79 28.0317 109.481C28.0317 111.172 29.3451 112.543 30.9653 112.543Z" stroke="url(#paint25_linear)" stroke-opacity="0.5" stroke-width="2" stroke-linecap="round" stroke-linejoin="round"/>
<path d="M30.9653 86.0758C32.5855 86.0758 33.8988 84.7049 33.8988 83.014C33.8988 81.323 32.5855 79.9521 30.9653 79.9521C29.3451 79.9521 28.0317 81.323 28.0317 83.014C28.0317 84.7049 29.3451 86.0758 30.9653 86.0758Z" stroke="url(#paint26_linear)" stroke-opacity="0.5" stroke-width="2" stroke-linecap="round" stroke-linejoin="round"/>
<path d="M30.9653 59.8267C32.5855 59.8267 33.8988 58.4559 33.8988 56.7649C33.8988 55.0739 32.5855 53.7031 30.9653 53.7031C29.3451 53.7031 28.0317 55.0739 28.0317 56.7649C28.0317 58.4559 29.3451 59.8267 30.9653 59.8267Z" stroke="url(#paint27_linear)" stroke-opacity="0.5" stroke-width="2" stroke-linecap="round" stroke-linejoin="round"/>
<path d="M30.9653 33.3682C32.5855 33.3682 33.8988 31.9974 33.8988 30.3064C33.8988 28.6154 32.5855 27.2446 30.9653 27.2446C29.3451 27.2446 28.0317 28.6154 28.0317 30.3064C28.0317 31.9974 29.3451 33.3682 30.9653 33.3682Z" stroke="url(#paint28_linear)" stroke-opacity="0.5" stroke-width="2" stroke-linecap="round" stroke-linejoin="round"/>
<path d="M30.9668 7.1236C32.587 7.1236 33.9004 5.75278 33.9004 4.0618C33.9004 2.37081 32.587 1 30.9668 1C29.3467 1 28.0333 2.37081 28.0333 4.0618C28.0333 5.75278 29.3467 7.1236 30.9668 7.1236Z" stroke="url(#paint29_linear)" stroke-opacity="0.5" stroke-width="2" stroke-linecap="round" stroke-linejoin="round"/>
<path d="M3.93355 139.006C5.55371 139.006 6.86711 137.636 6.86711 135.945C6.86711 134.254 5.55371 132.883 3.93355 132.883C2.3134 132.883 1 134.254 1 135.945C1 137.636 2.3134 139.006 3.93355 139.006Z" stroke="url(#paint30_linear)" stroke-opacity="0.5" stroke-width="2" stroke-linecap="round" stroke-linejoin="round"/>
<path d="M3.93355 112.543C5.55371 112.543 6.86711 111.172 6.86711 109.481C6.86711 107.79 5.55371 106.42 3.93355 106.42C2.3134 106.42 1 107.79 1 109.481C1 111.172 2.3134 112.543 3.93355 112.543Z" stroke="url(#paint31_linear)" stroke-opacity="0.5" stroke-width="2" stroke-linecap="round" stroke-linejoin="round"/>
<path d="M3.93355 86.0758C5.55371 86.0758 6.86711 84.7049 6.86711 83.014C6.86711 81.323 5.55371 79.9521 3.93355 79.9521C2.3134 79.9521 1 81.323 1 83.014C1 84.7049 2.3134 86.0758 3.93355 86.0758Z" stroke="url(#paint32_linear)" stroke-opacity="0.5" stroke-width="2" stroke-linecap="round" stroke-linejoin="round"/>
<path d="M3.93355 59.8267C5.55371 59.8267 6.86711 58.4559 6.86711 56.7649C6.86711 55.0739 5.55371 53.7031 3.93355 53.7031C2.3134 53.7031 1 55.0739 1 56.7649C1 58.4559 2.3134 59.8267 3.93355 59.8267Z" stroke="url(#paint33_linear)" stroke-opacity="0.5" stroke-width="2" stroke-linecap="round" stroke-linejoin="round"/>
<path d="M3.93355 33.3682C5.55371 33.3682 6.86711 31.9974 6.86711 30.3064C6.86711 28.6154 5.55371 27.2446 3.93355 27.2446C2.3134 27.2446 1 28.6154 1 30.3064C1 31.9974 2.3134 33.3682 3.93355 33.3682Z" stroke="url(#paint34_linear)" stroke-opacity="0.5" stroke-width="2" stroke-linecap="round" stroke-linejoin="round"/>
<path d="M3.93368 7.1236C5.55383 7.1236 6.86723 5.75278 6.86723 4.0618C6.86723 2.37081 5.55383 1 3.93368 1C2.31352 1 1.00012 2.37081 1.00012 4.0618C1.00012 5.75278 2.31352 7.1236 3.93368 7.1236Z" stroke="url(#paint35_linear)" stroke-opacity="0.5" stroke-width="2" stroke-linecap="round" stroke-linejoin="round"/>
</g>
<defs>
<filter id="filter0_ii" x="-0.5" y="-0.5" width="144.653" height="141.006" filterUnits="userSpaceOnUse" color-interpolation-filters="sRGB">
<feFlood flood-opacity="0" result="BackgroundImageFix"/>
<feBlend mode="normal" in="SourceGraphic" in2="BackgroundImageFix" result="shape"/>
<feColorMatrix in="SourceAlpha" type="matrix" values="0 0 0 0 0 0 0 0 0 0 0 0 0 0 0 0 0 0 127 0" result="hardAlpha"/>
<feOffset dx="-0.5" dy="-0.5"/>
<feGaussianBlur stdDeviation="0.25"/>
<feComposite in2="hardAlpha" operator="arithmetic" k2="-1" k3="1"/>
<feColorMatrix type="matrix" values="0 0 0 0 1 0 0 0 0 1 0 0 0 0 1 0 0 0 0.4 0"/>
<feBlend mode="normal" in2="shape" result="effect1_innerShadow"/>
<feColorMatrix in="SourceAlpha" type="matrix" values="0 0 0 0 0 0 0 0 0 0 0 0 0 0 0 0 0 0 127 0" result="hardAlpha"/>
<feOffset dx="0.5" dy="0.5"/>
<feGaussianBlur stdDeviation="0.25"/>
<feComposite in2="hardAlpha" operator="arithmetic" k2="-1" k3="1"/>
<feColorMatrix type="matrix" values="0 0 0 0 0.127604 0 0 0 0 0.267969 0 0 0 0 0.408333 0 0 0 0.4 0"/>
<feBlend mode="normal" in2="effect1_innerShadow" result="effect2_innerShadow"/>
</filter>
<linearGradient id="paint0_linear" x1="142.213" y1="139.006" x2="136.378" y2="132.019" gradientUnits="userSpaceOnUse">
<stop stop-color="#48647D"/>
<stop offset="0.234375" stop-color="#6B8299"/>
<stop offset="0.442708" stop-color="#DAE2EB"/>
<stop offset="0.682292" stop-color="#8CA2B7"/>
<stop offset="1" stop-color="#EDF2F7"/>
</linearGradient>
<linearGradient id="paint1_linear" x1="142.213" y1="112.543" x2="136.378" y2="105.556" gradientUnits="userSpaceOnUse">
<stop stop-color="#48647D"/>
<stop offset="0.234375" stop-color="#6B8299"/>
<stop offset="0.442708" stop-color="#DAE2EB"/>
<stop offset="0.682292" stop-color="#8CA2B7"/>
<stop offset="1" stop-color="#EDF2F7"/>
</linearGradient>
<linearGradient id="paint2_linear" x1="142.213" y1="86.0758" x2="136.378" y2="79.0882" gradientUnits="userSpaceOnUse">
<stop stop-color="#48647D"/>
<stop offset="0.234375" stop-color="#6B8299"/>
<stop offset="0.442708" stop-color="#DAE2EB"/>
<stop offset="0.682292" stop-color="#8CA2B7"/>
<stop offset="1" stop-color="#EDF2F7"/>
</linearGradient>
<linearGradient id="paint3_linear" x1="142.213" y1="59.8267" x2="136.378" y2="52.8391" gradientUnits="userSpaceOnUse">
<stop stop-color="#48647D"/>
<stop offset="0.234375" stop-color="#6B8299"/>
<stop offset="0.442708" stop-color="#DAE2EB"/>
<stop offset="0.682292" stop-color="#8CA2B7"/>
<stop offset="1" stop-color="#EDF2F7"/>
</linearGradient>
<linearGradient id="paint4_linear" x1="142.213" y1="33.3682" x2="136.378" y2="26.3806" gradientUnits="userSpaceOnUse">
<stop stop-color="#48647D"/>
<stop offset="0.234375" stop-color="#6B8299"/>
<stop offset="0.442708" stop-color="#DAE2EB"/>
<stop offset="0.682292" stop-color="#8CA2B7"/>
<stop offset="1" stop-color="#EDF2F7"/>
</linearGradient>
<linearGradient id="paint5_linear" x1="142.213" y1="7.1236" x2="136.378" y2="0.136016" gradientUnits="userSpaceOnUse">
<stop stop-color="#48647D"/>
<stop offset="0.234375" stop-color="#6B8299"/>
<stop offset="0.442708" stop-color="#DAE2EB"/>
<stop offset="0.682292" stop-color="#8CA2B7"/>
<stop offset="1" stop-color="#EDF2F7"/>
</linearGradient>
<linearGradient id="paint6_linear" x1="115.179" y1="139.006" x2="109.345" y2="132.019" gradientUnits="userSpaceOnUse">
<stop stop-color="#48647D"/>
<stop offset="0.234375" stop-color="#6B8299"/>
<stop offset="0.442708" stop-color="#DAE2EB"/>
<stop offset="0.682292" stop-color="#8CA2B7"/>
<stop offset="1" stop-color="#EDF2F7"/>
</linearGradient>
<linearGradient id="paint7_linear" x1="115.179" y1="112.543" x2="109.345" y2="105.556" gradientUnits="userSpaceOnUse">
<stop stop-color="#48647D"/>
<stop offset="0.234375" stop-color="#6B8299"/>
<stop offset="0.442708" stop-color="#DAE2EB"/>
<stop offset="0.682292" stop-color="#8CA2B7"/>
<stop offset="1" stop-color="#EDF2F7"/>
</linearGradient>
<linearGradient id="paint8_linear" x1="115.179" y1="86.0758" x2="109.345" y2="79.0882" gradientUnits="userSpaceOnUse">
<stop stop-color="#48647D"/>
<stop offset="0.234375" stop-color="#6B8299"/>
<stop offset="0.442708" stop-color="#DAE2EB"/>
<stop offset="0.682292" stop-color="#8CA2B7"/>
<stop offset="1" stop-color="#EDF2F7"/>
</linearGradient>
<linearGradient id="paint9_linear" x1="115.179" y1="59.8267" x2="109.345" y2="52.8391" gradientUnits="userSpaceOnUse">
<stop stop-color="#48647D"/>
<stop offset="0.234375" stop-color="#6B8299"/>
<stop offset="0.442708" stop-color="#DAE2EB"/>
<stop offset="0.682292" stop-color="#8CA2B7"/>
<stop offset="1" stop-color="#EDF2F7"/>
</linearGradient>
<linearGradient id="paint10_linear" x1="115.179" y1="33.3682" x2="109.345" y2="26.3806" gradientUnits="userSpaceOnUse">
<stop stop-color="#48647D"/>
<stop offset="0.234375" stop-color="#6B8299"/>
<stop offset="0.442708" stop-color="#DAE2EB"/>
<stop offset="0.682292" stop-color="#8CA2B7"/>
<stop offset="1" stop-color="#EDF2F7"/>
</linearGradient>
<linearGradient id="paint11_linear" x1="115.18" y1="7.1236" x2="109.345" y2="0.136008" gradientUnits="userSpaceOnUse">
<stop stop-color="#48647D"/>
<stop offset="0.234375" stop-color="#6B8299"/>
<stop offset="0.442708" stop-color="#DAE2EB"/>
<stop offset="0.682292" stop-color="#8CA2B7"/>
<stop offset="1" stop-color="#EDF2F7"/>
</linearGradient>
<linearGradient id="paint12_linear" x1="87.9392" y1="139.006" x2="82.1045" y2="132.019" gradientUnits="userSpaceOnUse">
<stop stop-color="#48647D"/>
<stop offset="0.234375" stop-color="#6B8299"/>
<stop offset="0.442708" stop-color="#DAE2EB"/>
<stop offset="0.682292" stop-color="#8CA2B7"/>
<stop offset="1" stop-color="#EDF2F7"/>
</linearGradient>
<linearGradient id="paint13_linear" x1="87.9392" y1="112.543" x2="82.1045" y2="105.556" gradientUnits="userSpaceOnUse">
<stop stop-color="#48647D"/>
<stop offset="0.234375" stop-color="#6B8299"/>
<stop offset="0.442708" stop-color="#DAE2EB"/>
<stop offset="0.682292" stop-color="#8CA2B7"/>
<stop offset="1" stop-color="#EDF2F7"/>
</linearGradient>
<linearGradient id="paint14_linear" x1="87.9392" y1="86.0758" x2="82.1045" y2="79.0882" gradientUnits="userSpaceOnUse">
<stop stop-color="#48647D"/>
<stop offset="0.234375" stop-color="#6B8299"/>
<stop offset="0.442708" stop-color="#DAE2EB"/>
<stop offset="0.682292" stop-color="#8CA2B7"/>
<stop offset="1" stop-color="#EDF2F7"/>
</linearGradient>
<linearGradient id="paint15_linear" x1="87.9392" y1="59.8267" x2="82.1045" y2="52.8391" gradientUnits="userSpaceOnUse">
<stop stop-color="#48647D"/>
<stop offset="0.234375" stop-color="#6B8299"/>
<stop offset="0.442708" stop-color="#DAE2EB"/>
<stop offset="0.682292" stop-color="#8CA2B7"/>
<stop offset="1" stop-color="#EDF2F7"/>
</linearGradient>
<linearGradient id="paint16_linear" x1="87.9392" y1="33.3682" x2="82.1045" y2="26.3806" gradientUnits="userSpaceOnUse">
<stop stop-color="#48647D"/>
<stop offset="0.234375" stop-color="#6B8299"/>
<stop offset="0.442708" stop-color="#DAE2EB"/>
<stop offset="0.682292" stop-color="#8CA2B7"/>
<stop offset="1" stop-color="#EDF2F7"/>
</linearGradient>
<linearGradient id="paint17_linear" x1="87.94" y1="7.1236" x2="82.1054" y2="0.136008" gradientUnits="userSpaceOnUse">
<stop stop-color="#48647D"/>
<stop offset="0.234375" stop-color="#6B8299"/>
<stop offset="0.442708" stop-color="#DAE2EB"/>
<stop offset="0.682292" stop-color="#8CA2B7"/>
<stop offset="1" stop-color="#EDF2F7"/>
</linearGradient>
<linearGradient id="paint18_linear" x1="60.699" y1="139.006" x2="54.8644" y2="132.019" gradientUnits="userSpaceOnUse">
<stop stop-color="#48647D"/>
<stop offset="0.234375" stop-color="#6B8299"/>
<stop offset="0.442708" stop-color="#DAE2EB"/>
<stop offset="0.682292" stop-color="#8CA2B7"/>
<stop offset="1" stop-color="#EDF2F7"/>
</linearGradient>
<linearGradient id="paint19_linear" x1="60.699" y1="112.543" x2="54.8644" y2="105.556" gradientUnits="userSpaceOnUse">
<stop stop-color="#48647D"/>
<stop offset="0.234375" stop-color="#6B8299"/>
<stop offset="0.442708" stop-color="#DAE2EB"/>
<stop offset="0.682292" stop-color="#8CA2B7"/>
<stop offset="1" stop-color="#EDF2F7"/>
</linearGradient>
<linearGradient id="paint20_linear" x1="60.699" y1="86.0758" x2="54.8644" y2="79.0882" gradientUnits="userSpaceOnUse">
<stop stop-color="#48647D"/>
<stop offset="0.234375" stop-color="#6B8299"/>
<stop offset="0.442708" stop-color="#DAE2EB"/>
<stop offset="0.682292" stop-color="#8CA2B7"/>
<stop offset="1" stop-color="#EDF2F7"/>
</linearGradient>
<linearGradient id="paint21_linear" x1="60.699" y1="59.8267" x2="54.8644" y2="52.8391" gradientUnits="userSpaceOnUse">
<stop stop-color="#48647D"/>
<stop offset="0.234375" stop-color="#6B8299"/>
<stop offset="0.442708" stop-color="#DAE2EB"/>
<stop offset="0.682292" stop-color="#8CA2B7"/>
<stop offset="1" stop-color="#EDF2F7"/>
</linearGradient>
<linearGradient id="paint22_linear" x1="60.699" y1="33.3682" x2="54.8644" y2="26.3806" gradientUnits="userSpaceOnUse">
<stop stop-color="#48647D"/>
<stop offset="0.234375" stop-color="#6B8299"/>
<stop offset="0.442708" stop-color="#DAE2EB"/>
<stop offset="0.682292" stop-color="#8CA2B7"/>
<stop offset="1" stop-color="#EDF2F7"/>
</linearGradient>
<linearGradient id="paint23_linear" x1="60.7003" y1="7.1236" x2="54.8656" y2="0.136004" gradientUnits="userSpaceOnUse">
<stop stop-color="#48647D"/>
<stop offset="0.234375" stop-color="#6B8299"/>
<stop offset="0.442708" stop-color="#DAE2EB"/>
<stop offset="0.682292" stop-color="#8CA2B7"/>
<stop offset="1" stop-color="#EDF2F7"/>
</linearGradient>
<linearGradient id="paint24_linear" x1="33.4588" y1="139.006" x2="27.6242" y2="132.019" gradientUnits="userSpaceOnUse">
<stop stop-color="#48647D"/>
<stop offset="0.234375" stop-color="#6B8299"/>
<stop offset="0.442708" stop-color="#DAE2EB"/>
<stop offset="0.682292" stop-color="#8CA2B7"/>
<stop offset="1" stop-color="#EDF2F7"/>
</linearGradient>
<linearGradient id="paint25_linear" x1="33.4588" y1="112.543" x2="27.6242" y2="105.556" gradientUnits="userSpaceOnUse">
<stop stop-color="#48647D"/>
<stop offset="0.234375" stop-color="#6B8299"/>
<stop offset="0.442708" stop-color="#DAE2EB"/>
<stop offset="0.682292" stop-color="#8CA2B7"/>
<stop offset="1" stop-color="#EDF2F7"/>
</linearGradient>
<linearGradient id="paint26_linear" x1="33.4588" y1="86.0758" x2="27.6242" y2="79.0882" gradientUnits="userSpaceOnUse">
<stop stop-color="#48647D"/>
<stop offset="0.234375" stop-color="#6B8299"/>
<stop offset="0.442708" stop-color="#DAE2EB"/>
<stop offset="0.682292" stop-color="#8CA2B7"/>
<stop offset="1" stop-color="#EDF2F7"/>
</linearGradient>
<linearGradient id="paint27_linear" x1="33.4588" y1="59.8267" x2="27.6242" y2="52.8391" gradientUnits="userSpaceOnUse">
<stop stop-color="#48647D"/>
<stop offset="0.234375" stop-color="#6B8299"/>
<stop offset="0.442708" stop-color="#DAE2EB"/>
<stop offset="0.682292" stop-color="#8CA2B7"/>
<stop offset="1" stop-color="#EDF2F7"/>
</linearGradient>
<linearGradient id="paint28_linear" x1="33.4588" y1="33.3682" x2="27.6242" y2="26.3806" gradientUnits="userSpaceOnUse">
<stop stop-color="#48647D"/>
<stop offset="0.234375" stop-color="#6B8299"/>
<stop offset="0.442708" stop-color="#DAE2EB"/>
<stop offset="0.682292" stop-color="#8CA2B7"/>
<stop offset="1" stop-color="#EDF2F7"/>
</linearGradient>
<linearGradient id="paint29_linear" x1="33.4603" y1="7.1236" x2="27.6257" y2="0.136006" gradientUnits="userSpaceOnUse">
<stop stop-color="#48647D"/>
<stop offset="0.234375" stop-color="#6B8299"/>
<stop offset="0.442708" stop-color="#DAE2EB"/>
<stop offset="0.682292" stop-color="#8CA2B7"/>
<stop offset="1" stop-color="#EDF2F7"/>
</linearGradient>
<linearGradient id="paint30_linear" x1="6.42707" y1="139.006" x2="0.592452" y2="132.019" gradientUnits="userSpaceOnUse">
<stop stop-color="#48647D"/>
<stop offset="0.234375" stop-color="#6B8299"/>
<stop offset="0.442708" stop-color="#DAE2EB"/>
<stop offset="0.682292" stop-color="#8CA2B7"/>
<stop offset="1" stop-color="#EDF2F7"/>
</linearGradient>
<linearGradient id="paint31_linear" x1="6.42707" y1="112.543" x2="0.592452" y2="105.556" gradientUnits="userSpaceOnUse">
<stop stop-color="#48647D"/>
<stop offset="0.234375" stop-color="#6B8299"/>
<stop offset="0.442708" stop-color="#DAE2EB"/>
<stop offset="0.682292" stop-color="#8CA2B7"/>
<stop offset="1" stop-color="#EDF2F7"/>
</linearGradient>
<linearGradient id="paint32_linear" x1="6.42707" y1="86.0758" x2="0.592443" y2="79.0882" gradientUnits="userSpaceOnUse">
<stop stop-color="#48647D"/>
<stop offset="0.234375" stop-color="#6B8299"/>
<stop offset="0.442708" stop-color="#DAE2EB"/>
<stop offset="0.682292" stop-color="#8CA2B7"/>
<stop offset="1" stop-color="#EDF2F7"/>
</linearGradient>
<linearGradient id="paint33_linear" x1="6.42707" y1="59.8267" x2="0.592452" y2="52.8391" gradientUnits="userSpaceOnUse">
<stop stop-color="#48647D"/>
<stop offset="0.234375" stop-color="#6B8299"/>
<stop offset="0.442708" stop-color="#DAE2EB"/>
<stop offset="0.682292" stop-color="#8CA2B7"/>
<stop offset="1" stop-color="#EDF2F7"/>
</linearGradient>
<linearGradient id="paint34_linear" x1="6.42707" y1="33.3682" x2="0.59245" y2="26.3806" gradientUnits="userSpaceOnUse">
<stop stop-color="#48647D"/>
<stop offset="0.234375" stop-color="#6B8299"/>
<stop offset="0.442708" stop-color="#DAE2EB"/>
<stop offset="0.682292" stop-color="#8CA2B7"/>
<stop offset="1" stop-color="#EDF2F7"/>
</linearGradient>
<linearGradient id="paint35_linear" x1="6.4272" y1="7.1236" x2="0.592573" y2="0.136007" gradientUnits="userSpaceOnUse">
<stop stop-color="#48647D"/>
<stop offset="0.234375" stop-color="#6B8299"/>
<stop offset="0.442708" stop-color="#DAE2EB"/>
<stop offset="0.682292" stop-color="#8CA2B7"/>
<stop offset="1" stop-color="#EDF2F7"/>
</linearGradient>
</defs>
</svg>
