<svg width="18" height="18" viewBox="0 0 18 18" fill="none" xmlns="http://www.w3.org/2000/svg">
<path d="M17.5385 14.5681L3.43183 0.461422C2.8166 -0.153807 1.81916 -0.153807 1.20489 0.461422L0.461422 1.20373C-0.153807 1.81916 -0.153807 2.8166 0.461422 3.43086L14.5681 17.5375C15.1835 18.1527 16.1809 18.1527 16.7952 17.5375L17.5375 16.7952C18.1539 16.1809 18.1539 15.1833 17.5385 14.5681Z" fill="#73738D"/>
<path d="M14.5681 0.462132L0.461422 14.5688C-0.153807 15.184 -0.153807 16.1816 0.461422 16.7959L1.20373 17.5382C1.81916 18.1534 2.8166 18.1534 3.43087 17.5382L17.5385 3.43254C18.1539 2.81731 18.1539 1.81987 17.5385 1.2056L16.7961 0.463286C16.1809 -0.153097 15.1835 -0.153097 14.5681 0.462132Z" fill="#73738D"/>
</svg>
