<svg width="10" height="22" viewBox="0 0 10 22" fill="none" xmlns="http://www.w3.org/2000/svg">
<path d="M9.27294 19.3002L8.97065 20.5359C8.06377 20.8938 7.33936 21.1663 6.79992 21.3536C6.25991 21.5415 5.63244 21.6349 4.91753 21.6349C3.81966 21.6349 2.96572 21.366 2.35668 20.8318C1.74763 20.2954 1.44301 19.6158 1.44301 18.7914C1.44301 18.4722 1.46512 18.1439 1.51107 17.8094C1.55741 17.4746 1.6311 17.0974 1.73193 16.6759L2.86528 12.6645C2.96611 12.2803 3.05181 11.9164 3.12045 11.5722C3.19006 11.2302 3.22361 10.9155 3.22361 10.6322C3.22361 10.1199 3.11754 9.76157 2.90639 9.56011C2.69523 9.35923 2.2923 9.25723 1.69412 9.25723C1.40113 9.25723 1.1 9.30416 0.793056 9.3949C0.484753 9.48604 0.221241 9.57407 0 9.65589L0.303068 8.41919C1.04552 8.1169 1.75519 7.85804 2.43404 7.6432C3.11289 7.42777 3.75432 7.31997 4.36103 7.31997C5.45134 7.31997 6.29268 7.58348 6.88349 8.1105C7.47431 8.63791 7.76962 9.32161 7.76962 10.1641C7.76962 10.3384 7.75023 10.6456 7.70854 11.0846C7.66782 11.5245 7.59201 11.9276 7.48149 12.2943L6.35298 16.2896C6.26049 16.6105 6.17731 16.9774 6.10498 17.3902C6.03033 17.8003 5.99465 18.1137 5.99465 18.3239C5.99465 18.8544 6.11293 19.2166 6.35007 19.4091C6.58896 19.6017 7.00042 19.6975 7.58483 19.6975C7.8592 19.6975 8.17139 19.6488 8.51828 19.5532C8.86419 19.4576 9.11646 19.3736 9.27294 19.3002ZM9.55914 2.52653C9.55914 3.22264 9.29679 3.81714 8.76957 4.30596C8.24371 4.79654 7.61004 5.04201 6.86876 5.04201C6.12515 5.04201 5.48993 4.79654 4.95805 4.30596C4.42715 3.81695 4.16112 3.22264 4.16112 2.52653C4.16112 1.83178 4.42715 1.23631 4.95805 0.741284C5.48896 0.24703 6.12534 0 6.86876 0C7.60985 0 8.24371 0.247612 8.76957 0.741284C9.29718 1.23631 9.55914 1.83198 9.55914 2.52653Z" fill="#73738D"/>
</svg>
