<svg width="95" height="89" viewBox="0 0 95 89" fill="none" xmlns="http://www.w3.org/2000/svg">
<g filter="url(#filter0_ii)">
<path d="M3.21975 87.2283C4.27619 87.2283 5.13261 86.3719 5.13261 85.3155C5.13261 84.259 4.27619 83.4026 3.21975 83.4026C2.1633 83.4026 1.30688 84.259 1.30688 85.3155C1.30688 86.3719 2.1633 87.2283 3.21975 87.2283Z" stroke="url(#paint0_linear)" stroke-opacity="0.5" stroke-width="2" stroke-linecap="round" stroke-linejoin="round"/>
<path d="M3.21975 70.7002C4.27619 70.7002 5.13261 69.8438 5.13261 68.7874C5.13261 67.7309 4.27619 66.8745 3.21975 66.8745C2.1633 66.8745 1.30688 67.7309 1.30688 68.7874C1.30688 69.8438 2.1633 70.7002 3.21975 70.7002Z" stroke="url(#paint1_linear)" stroke-opacity="0.5" stroke-width="2" stroke-linecap="round" stroke-linejoin="round"/>
<path d="M3.21975 54.1673C4.27619 54.1673 5.13261 53.3109 5.13261 52.2544C5.13261 51.198 4.27619 50.3416 3.21975 50.3416C2.1633 50.3416 1.30688 51.198 1.30688 52.2544C1.30688 53.3109 2.1633 54.1673 3.21975 54.1673Z" stroke="url(#paint2_linear)" stroke-opacity="0.5" stroke-width="2" stroke-linecap="round" stroke-linejoin="round"/>
<path d="M3.21975 37.7686C4.27619 37.7686 5.13261 36.9122 5.13261 35.8557C5.13261 34.7993 4.27619 33.9429 3.21975 33.9429C2.1633 33.9429 1.30688 34.7993 1.30688 35.8557C1.30688 36.9122 2.1633 37.7686 3.21975 37.7686Z" stroke="url(#paint3_linear)" stroke-opacity="0.5" stroke-width="2" stroke-linecap="round" stroke-linejoin="round"/>
<path d="M3.21975 21.2356C4.27619 21.2356 5.13261 20.3792 5.13261 19.3228C5.13261 18.2663 4.27619 17.4099 3.21975 17.4099C2.1633 17.4099 1.30688 18.2663 1.30688 19.3228C1.30688 20.3792 2.1633 21.2356 3.21975 21.2356Z" stroke="url(#paint4_linear)" stroke-opacity="0.5" stroke-width="2" stroke-linecap="round" stroke-linejoin="round"/>
<path d="M3.22145 4.84135C4.2779 4.84135 5.13431 3.98493 5.13431 2.92849C5.13431 1.87204 4.2779 1.01562 3.22145 1.01562C2.16501 1.01562 1.30859 1.87204 1.30859 2.92849C1.30859 3.98493 2.16501 4.84135 3.22145 4.84135Z" stroke="url(#paint5_linear)" stroke-opacity="0.5" stroke-width="2" stroke-linecap="round" stroke-linejoin="round"/>
</g>
<g filter="url(#filter1_ii)">
<path d="M91.7608 87.2283C92.8172 87.2283 93.6736 86.3719 93.6736 85.3155C93.6736 84.259 92.8172 83.4026 91.7608 83.4026C90.7043 83.4026 89.8479 84.259 89.8479 85.3155C89.8479 86.3719 90.7043 87.2283 91.7608 87.2283Z" stroke="url(#paint6_linear)" stroke-opacity="0.5" stroke-width="2" stroke-linecap="round" stroke-linejoin="round"/>
<path d="M91.7608 70.7002C92.8172 70.7002 93.6736 69.8438 93.6736 68.7874C93.6736 67.7309 92.8172 66.8745 91.7608 66.8745C90.7043 66.8745 89.8479 67.7309 89.8479 68.7874C89.8479 69.8438 90.7043 70.7002 91.7608 70.7002Z" stroke="url(#paint7_linear)" stroke-opacity="0.5" stroke-width="2" stroke-linecap="round" stroke-linejoin="round"/>
<path d="M91.7608 54.1673C92.8172 54.1673 93.6736 53.3109 93.6736 52.2544C93.6736 51.198 92.8172 50.3416 91.7608 50.3416C90.7043 50.3416 89.8479 51.198 89.8479 52.2544C89.8479 53.3109 90.7043 54.1673 91.7608 54.1673Z" stroke="url(#paint8_linear)" stroke-opacity="0.5" stroke-width="2" stroke-linecap="round" stroke-linejoin="round"/>
<path d="M91.7608 37.7686C92.8172 37.7686 93.6736 36.9122 93.6736 35.8557C93.6736 34.7993 92.8172 33.9429 91.7608 33.9429C90.7043 33.9429 89.8479 34.7993 89.8479 35.8557C89.8479 36.9122 90.7043 37.7686 91.7608 37.7686Z" stroke="url(#paint9_linear)" stroke-opacity="0.5" stroke-width="2" stroke-linecap="round" stroke-linejoin="round"/>
<path d="M91.7608 21.2356C92.8172 21.2356 93.6736 20.3792 93.6736 19.3228C93.6736 18.2663 92.8172 17.4099 91.7608 17.4099C90.7043 17.4099 89.8479 18.2663 89.8479 19.3228C89.8479 20.3792 90.7043 21.2356 91.7608 21.2356Z" stroke="url(#paint10_linear)" stroke-opacity="0.5" stroke-width="2" stroke-linecap="round" stroke-linejoin="round"/>
<path d="M91.7614 4.84135C92.8178 4.84135 93.6742 3.98493 93.6742 2.92849C93.6742 1.87204 92.8178 1.01562 91.7614 1.01562C90.7049 1.01562 89.8485 1.87204 89.8485 2.92849C89.8485 3.98493 90.7049 4.84135 91.7614 4.84135Z" stroke="url(#paint11_linear)" stroke-opacity="0.5" stroke-width="2" stroke-linecap="round" stroke-linejoin="round"/>
</g>
<g filter="url(#filter2_ii)">
<path d="M74.1351 87.2283C75.1916 87.2283 76.048 86.3719 76.048 85.3155C76.048 84.259 75.1916 83.4026 74.1351 83.4026C73.0787 83.4026 72.2223 84.259 72.2223 85.3155C72.2223 86.3719 73.0787 87.2283 74.1351 87.2283Z" stroke="url(#paint12_linear)" stroke-opacity="0.5" stroke-width="2" stroke-linecap="round" stroke-linejoin="round"/>
<path d="M74.1351 70.7002C75.1916 70.7002 76.048 69.8438 76.048 68.7874C76.048 67.7309 75.1916 66.8745 74.1351 66.8745C73.0787 66.8745 72.2223 67.7309 72.2223 68.7874C72.2223 69.8438 73.0787 70.7002 74.1351 70.7002Z" stroke="url(#paint13_linear)" stroke-opacity="0.5" stroke-width="2" stroke-linecap="round" stroke-linejoin="round"/>
<path d="M74.1351 54.1673C75.1916 54.1673 76.048 53.3109 76.048 52.2544C76.048 51.198 75.1916 50.3416 74.1351 50.3416C73.0787 50.3416 72.2223 51.198 72.2223 52.2544C72.2223 53.3109 73.0787 54.1673 74.1351 54.1673Z" stroke="url(#paint14_linear)" stroke-opacity="0.5" stroke-width="2" stroke-linecap="round" stroke-linejoin="round"/>
<path d="M74.1351 37.7686C75.1916 37.7686 76.048 36.9122 76.048 35.8557C76.048 34.7993 75.1916 33.9429 74.1351 33.9429C73.0787 33.9429 72.2223 34.7993 72.2223 35.8557C72.2223 36.9122 73.0787 37.7686 74.1351 37.7686Z" stroke="url(#paint15_linear)" stroke-opacity="0.5" stroke-width="2" stroke-linecap="round" stroke-linejoin="round"/>
<path d="M74.1351 21.2356C75.1916 21.2356 76.048 20.3792 76.048 19.3228C76.048 18.2663 75.1916 17.4099 74.1351 17.4099C73.0787 17.4099 72.2223 18.2663 72.2223 19.3228C72.2223 20.3792 73.0787 21.2356 74.1351 21.2356Z" stroke="url(#paint16_linear)" stroke-opacity="0.5" stroke-width="2" stroke-linecap="round" stroke-linejoin="round"/>
<path d="M74.1344 4.84135C75.1909 4.84135 76.0473 3.98493 76.0473 2.92849C76.0473 1.87204 75.1909 1.01562 74.1344 1.01562C73.078 1.01562 72.2216 1.87204 72.2216 2.92849C72.2216 3.98493 73.078 4.84135 74.1344 4.84135Z" stroke="url(#paint17_linear)" stroke-opacity="0.5" stroke-width="2" stroke-linecap="round" stroke-linejoin="round"/>
</g>
<g filter="url(#filter3_ii)">
<path d="M56.3729 87.2283C57.4294 87.2283 58.2858 86.3719 58.2858 85.3155C58.2858 84.259 57.4294 83.4026 56.3729 83.4026C55.3165 83.4026 54.4601 84.259 54.4601 85.3155C54.4601 86.3719 55.3165 87.2283 56.3729 87.2283Z" stroke="url(#paint18_linear)" stroke-opacity="0.5" stroke-width="2" stroke-linecap="round" stroke-linejoin="round"/>
<path d="M56.3729 70.7002C57.4294 70.7002 58.2858 69.8438 58.2858 68.7874C58.2858 67.7309 57.4294 66.8745 56.3729 66.8745C55.3165 66.8745 54.4601 67.7309 54.4601 68.7874C54.4601 69.8438 55.3165 70.7002 56.3729 70.7002Z" stroke="url(#paint19_linear)" stroke-opacity="0.5" stroke-width="2" stroke-linecap="round" stroke-linejoin="round"/>
<path d="M56.3729 54.1673C57.4294 54.1673 58.2858 53.3109 58.2858 52.2544C58.2858 51.198 57.4294 50.3416 56.3729 50.3416C55.3165 50.3416 54.4601 51.198 54.4601 52.2544C54.4601 53.3109 55.3165 54.1673 56.3729 54.1673Z" stroke="url(#paint20_linear)" stroke-opacity="0.5" stroke-width="2" stroke-linecap="round" stroke-linejoin="round"/>
<path d="M56.3729 37.7686C57.4294 37.7686 58.2858 36.9122 58.2858 35.8557C58.2858 34.7993 57.4294 33.9429 56.3729 33.9429C55.3165 33.9429 54.4601 34.7993 54.4601 35.8557C54.4601 36.9122 55.3165 37.7686 56.3729 37.7686Z" stroke="url(#paint21_linear)" stroke-opacity="0.5" stroke-width="2" stroke-linecap="round" stroke-linejoin="round"/>
<path d="M56.3729 21.2356C57.4294 21.2356 58.2858 20.3792 58.2858 19.3228C58.2858 18.2663 57.4294 17.4099 56.3729 17.4099C55.3165 17.4099 54.4601 18.2663 54.4601 19.3228C54.4601 20.3792 55.3165 21.2356 56.3729 21.2356Z" stroke="url(#paint22_linear)" stroke-opacity="0.5" stroke-width="2" stroke-linecap="round" stroke-linejoin="round"/>
<path d="M56.3721 4.84135C57.4285 4.84135 58.2849 3.98493 58.2849 2.92849C58.2849 1.87204 57.4285 1.01562 56.3721 1.01562C55.3156 1.01562 54.4592 1.87204 54.4592 2.92849C54.4592 3.98493 55.3156 4.84135 56.3721 4.84135Z" stroke="url(#paint23_linear)" stroke-opacity="0.5" stroke-width="2" stroke-linecap="round" stroke-linejoin="round"/>
</g>
<g filter="url(#filter4_ii)">
<path d="M38.6106 87.2283C39.6671 87.2283 40.5235 86.3719 40.5235 85.3155C40.5235 84.259 39.6671 83.4026 38.6106 83.4026C37.5542 83.4026 36.6978 84.259 36.6978 85.3155C36.6978 86.3719 37.5542 87.2283 38.6106 87.2283Z" stroke="url(#paint24_linear)" stroke-opacity="0.5" stroke-width="2" stroke-linecap="round" stroke-linejoin="round"/>
<path d="M38.6106 70.7002C39.6671 70.7002 40.5235 69.8438 40.5235 68.7874C40.5235 67.7309 39.6671 66.8745 38.6106 66.8745C37.5542 66.8745 36.6978 67.7309 36.6978 68.7874C36.6978 69.8438 37.5542 70.7002 38.6106 70.7002Z" stroke="url(#paint25_linear)" stroke-opacity="0.5" stroke-width="2" stroke-linecap="round" stroke-linejoin="round"/>
<path d="M38.6106 54.1673C39.6671 54.1673 40.5235 53.3109 40.5235 52.2544C40.5235 51.198 39.6671 50.3416 38.6106 50.3416C37.5542 50.3416 36.6978 51.198 36.6978 52.2544C36.6978 53.3109 37.5542 54.1673 38.6106 54.1673Z" stroke="url(#paint26_linear)" stroke-opacity="0.5" stroke-width="2" stroke-linecap="round" stroke-linejoin="round"/>
<path d="M38.6106 37.7686C39.6671 37.7686 40.5235 36.9122 40.5235 35.8557C40.5235 34.7993 39.6671 33.9429 38.6106 33.9429C37.5542 33.9429 36.6978 34.7993 36.6978 35.8557C36.6978 36.9122 37.5542 37.7686 38.6106 37.7686Z" stroke="url(#paint27_linear)" stroke-opacity="0.5" stroke-width="2" stroke-linecap="round" stroke-linejoin="round"/>
<path d="M38.6106 21.2356C39.6671 21.2356 40.5235 20.3792 40.5235 19.3228C40.5235 18.2663 39.6671 17.4099 38.6106 17.4099C37.5542 17.4099 36.6978 18.2663 36.6978 19.3228C36.6978 20.3792 37.5542 21.2356 38.6106 21.2356Z" stroke="url(#paint28_linear)" stroke-opacity="0.5" stroke-width="2" stroke-linecap="round" stroke-linejoin="round"/>
<path d="M38.6098 4.84135C39.6662 4.84135 40.5226 3.98493 40.5226 2.92849C40.5226 1.87204 39.6662 1.01562 38.6098 1.01562C37.5533 1.01562 36.6969 1.87204 36.6969 2.92849C36.6969 3.98493 37.5533 4.84135 38.6098 4.84135Z" stroke="url(#paint29_linear)" stroke-opacity="0.5" stroke-width="2" stroke-linecap="round" stroke-linejoin="round"/>
</g>
<g filter="url(#filter5_ii)">
<path d="M20.8486 87.2283C21.905 87.2283 22.7615 86.3719 22.7615 85.3155C22.7615 84.259 21.905 83.4026 20.8486 83.4026C19.7921 83.4026 18.9357 84.259 18.9357 85.3155C18.9357 86.3719 19.7921 87.2283 20.8486 87.2283Z" stroke="url(#paint30_linear)" stroke-opacity="0.5" stroke-width="2" stroke-linecap="round" stroke-linejoin="round"/>
<path d="M20.8486 70.7002C21.905 70.7002 22.7615 69.8438 22.7615 68.7874C22.7615 67.7309 21.905 66.8745 20.8486 66.8745C19.7921 66.8745 18.9357 67.7309 18.9357 68.7874C18.9357 69.8438 19.7921 70.7002 20.8486 70.7002Z" stroke="url(#paint31_linear)" stroke-opacity="0.5" stroke-width="2" stroke-linecap="round" stroke-linejoin="round"/>
<path d="M20.8486 54.1673C21.905 54.1673 22.7615 53.3109 22.7615 52.2544C22.7615 51.198 21.905 50.3416 20.8486 50.3416C19.7921 50.3416 18.9357 51.198 18.9357 52.2544C18.9357 53.3109 19.7921 54.1673 20.8486 54.1673Z" stroke="url(#paint32_linear)" stroke-opacity="0.5" stroke-width="2" stroke-linecap="round" stroke-linejoin="round"/>
<path d="M20.8486 37.7686C21.905 37.7686 22.7615 36.9122 22.7615 35.8557C22.7615 34.7993 21.905 33.9429 20.8486 33.9429C19.7921 33.9429 18.9357 34.7993 18.9357 35.8557C18.9357 36.9122 19.7921 37.7686 20.8486 37.7686Z" stroke="url(#paint33_linear)" stroke-opacity="0.5" stroke-width="2" stroke-linecap="round" stroke-linejoin="round"/>
<path d="M20.8486 21.2356C21.905 21.2356 22.7615 20.3792 22.7615 19.3228C22.7615 18.2663 21.905 17.4099 20.8486 17.4099C19.7921 17.4099 18.9357 18.2663 18.9357 19.3228C18.9357 20.3792 19.7921 21.2356 20.8486 21.2356Z" stroke="url(#paint34_linear)" stroke-opacity="0.5" stroke-width="2" stroke-linecap="round" stroke-linejoin="round"/>
<path d="M20.8476 4.84135C21.904 4.84135 22.7604 3.98493 22.7604 2.92849C22.7604 1.87204 21.904 1.01562 20.8476 1.01562C19.7911 1.01562 18.9347 1.87204 18.9347 2.92849C18.9347 3.98493 19.7911 4.84135 20.8476 4.84135Z" stroke="url(#paint35_linear)" stroke-opacity="0.5" stroke-width="2" stroke-linecap="round" stroke-linejoin="round"/>
</g>
<defs>
<filter id="filter0_ii" x="-0.193115" y="-0.484375" width="6.82743" height="89.2127" filterUnits="userSpaceOnUse" color-interpolation-filters="sRGB">
<feFlood flood-opacity="0" result="BackgroundImageFix"/>
<feBlend mode="normal" in="SourceGraphic" in2="BackgroundImageFix" result="shape"/>
<feColorMatrix in="SourceAlpha" type="matrix" values="0 0 0 0 0 0 0 0 0 0 0 0 0 0 0 0 0 0 127 0" result="hardAlpha"/>
<feOffset dx="-0.5" dy="-0.5"/>
<feGaussianBlur stdDeviation="0.25"/>
<feComposite in2="hardAlpha" operator="arithmetic" k2="-1" k3="1"/>
<feColorMatrix type="matrix" values="0 0 0 0 1 0 0 0 0 1 0 0 0 0 1 0 0 0 0.4 0"/>
<feBlend mode="normal" in2="shape" result="effect1_innerShadow"/>
<feColorMatrix in="SourceAlpha" type="matrix" values="0 0 0 0 0 0 0 0 0 0 0 0 0 0 0 0 0 0 127 0" result="hardAlpha"/>
<feOffset dx="0.5" dy="0.5"/>
<feGaussianBlur stdDeviation="0.25"/>
<feComposite in2="hardAlpha" operator="arithmetic" k2="-1" k3="1"/>
<feColorMatrix type="matrix" values="0 0 0 0 0.127604 0 0 0 0 0.267969 0 0 0 0 0.408333 0 0 0 0.4 0"/>
<feBlend mode="normal" in2="effect1_innerShadow" result="effect2_innerShadow"/>
</filter>
<filter id="filter1_ii" x="88.3479" y="-0.484375" width="6.82633" height="89.2127" filterUnits="userSpaceOnUse" color-interpolation-filters="sRGB">
<feFlood flood-opacity="0" result="BackgroundImageFix"/>
<feBlend mode="normal" in="SourceGraphic" in2="BackgroundImageFix" result="shape"/>
<feColorMatrix in="SourceAlpha" type="matrix" values="0 0 0 0 0 0 0 0 0 0 0 0 0 0 0 0 0 0 127 0" result="hardAlpha"/>
<feOffset dx="-0.5" dy="-0.5"/>
<feGaussianBlur stdDeviation="0.25"/>
<feComposite in2="hardAlpha" operator="arithmetic" k2="-1" k3="1"/>
<feColorMatrix type="matrix" values="0 0 0 0 1 0 0 0 0 1 0 0 0 0 1 0 0 0 0.4 0"/>
<feBlend mode="normal" in2="shape" result="effect1_innerShadow"/>
<feColorMatrix in="SourceAlpha" type="matrix" values="0 0 0 0 0 0 0 0 0 0 0 0 0 0 0 0 0 0 127 0" result="hardAlpha"/>
<feOffset dx="0.5" dy="0.5"/>
<feGaussianBlur stdDeviation="0.25"/>
<feComposite in2="hardAlpha" operator="arithmetic" k2="-1" k3="1"/>
<feColorMatrix type="matrix" values="0 0 0 0 0.127604 0 0 0 0 0.267969 0 0 0 0 0.408333 0 0 0 0.4 0"/>
<feBlend mode="normal" in2="effect1_innerShadow" result="effect2_innerShadow"/>
</filter>
<filter id="filter2_ii" x="70.7216" y="-0.484375" width="6.82645" height="89.2127" filterUnits="userSpaceOnUse" color-interpolation-filters="sRGB">
<feFlood flood-opacity="0" result="BackgroundImageFix"/>
<feBlend mode="normal" in="SourceGraphic" in2="BackgroundImageFix" result="shape"/>
<feColorMatrix in="SourceAlpha" type="matrix" values="0 0 0 0 0 0 0 0 0 0 0 0 0 0 0 0 0 0 127 0" result="hardAlpha"/>
<feOffset dx="-0.5" dy="-0.5"/>
<feGaussianBlur stdDeviation="0.25"/>
<feComposite in2="hardAlpha" operator="arithmetic" k2="-1" k3="1"/>
<feColorMatrix type="matrix" values="0 0 0 0 1 0 0 0 0 1 0 0 0 0 1 0 0 0 0.4 0"/>
<feBlend mode="normal" in2="shape" result="effect1_innerShadow"/>
<feColorMatrix in="SourceAlpha" type="matrix" values="0 0 0 0 0 0 0 0 0 0 0 0 0 0 0 0 0 0 127 0" result="hardAlpha"/>
<feOffset dx="0.5" dy="0.5"/>
<feGaussianBlur stdDeviation="0.25"/>
<feComposite in2="hardAlpha" operator="arithmetic" k2="-1" k3="1"/>
<feColorMatrix type="matrix" values="0 0 0 0 0.127604 0 0 0 0 0.267969 0 0 0 0 0.408333 0 0 0 0.4 0"/>
<feBlend mode="normal" in2="effect1_innerShadow" result="effect2_innerShadow"/>
</filter>
<filter id="filter3_ii" x="52.9592" y="-0.484375" width="6.82657" height="89.2127" filterUnits="userSpaceOnUse" color-interpolation-filters="sRGB">
<feFlood flood-opacity="0" result="BackgroundImageFix"/>
<feBlend mode="normal" in="SourceGraphic" in2="BackgroundImageFix" result="shape"/>
<feColorMatrix in="SourceAlpha" type="matrix" values="0 0 0 0 0 0 0 0 0 0 0 0 0 0 0 0 0 0 127 0" result="hardAlpha"/>
<feOffset dx="-0.5" dy="-0.5"/>
<feGaussianBlur stdDeviation="0.25"/>
<feComposite in2="hardAlpha" operator="arithmetic" k2="-1" k3="1"/>
<feColorMatrix type="matrix" values="0 0 0 0 1 0 0 0 0 1 0 0 0 0 1 0 0 0 0.4 0"/>
<feBlend mode="normal" in2="shape" result="effect1_innerShadow"/>
<feColorMatrix in="SourceAlpha" type="matrix" values="0 0 0 0 0 0 0 0 0 0 0 0 0 0 0 0 0 0 127 0" result="hardAlpha"/>
<feOffset dx="0.5" dy="0.5"/>
<feGaussianBlur stdDeviation="0.25"/>
<feComposite in2="hardAlpha" operator="arithmetic" k2="-1" k3="1"/>
<feColorMatrix type="matrix" values="0 0 0 0 0.127604 0 0 0 0 0.267969 0 0 0 0 0.408333 0 0 0 0.4 0"/>
<feBlend mode="normal" in2="effect1_innerShadow" result="effect2_innerShadow"/>
</filter>
<filter id="filter4_ii" x="35.1969" y="-0.484375" width="6.82658" height="89.2127" filterUnits="userSpaceOnUse" color-interpolation-filters="sRGB">
<feFlood flood-opacity="0" result="BackgroundImageFix"/>
<feBlend mode="normal" in="SourceGraphic" in2="BackgroundImageFix" result="shape"/>
<feColorMatrix in="SourceAlpha" type="matrix" values="0 0 0 0 0 0 0 0 0 0 0 0 0 0 0 0 0 0 127 0" result="hardAlpha"/>
<feOffset dx="-0.5" dy="-0.5"/>
<feGaussianBlur stdDeviation="0.25"/>
<feComposite in2="hardAlpha" operator="arithmetic" k2="-1" k3="1"/>
<feColorMatrix type="matrix" values="0 0 0 0 1 0 0 0 0 1 0 0 0 0 1 0 0 0 0.4 0"/>
<feBlend mode="normal" in2="shape" result="effect1_innerShadow"/>
<feColorMatrix in="SourceAlpha" type="matrix" values="0 0 0 0 0 0 0 0 0 0 0 0 0 0 0 0 0 0 127 0" result="hardAlpha"/>
<feOffset dx="0.5" dy="0.5"/>
<feGaussianBlur stdDeviation="0.25"/>
<feComposite in2="hardAlpha" operator="arithmetic" k2="-1" k3="1"/>
<feColorMatrix type="matrix" values="0 0 0 0 0.127604 0 0 0 0 0.267969 0 0 0 0 0.408333 0 0 0 0.4 0"/>
<feBlend mode="normal" in2="effect1_innerShadow" result="effect2_innerShadow"/>
</filter>
<filter id="filter5_ii" x="17.4347" y="-0.484375" width="6.82676" height="89.2127" filterUnits="userSpaceOnUse" color-interpolation-filters="sRGB">
<feFlood flood-opacity="0" result="BackgroundImageFix"/>
<feBlend mode="normal" in="SourceGraphic" in2="BackgroundImageFix" result="shape"/>
<feColorMatrix in="SourceAlpha" type="matrix" values="0 0 0 0 0 0 0 0 0 0 0 0 0 0 0 0 0 0 127 0" result="hardAlpha"/>
<feOffset dx="-0.5" dy="-0.5"/>
<feGaussianBlur stdDeviation="0.25"/>
<feComposite in2="hardAlpha" operator="arithmetic" k2="-1" k3="1"/>
<feColorMatrix type="matrix" values="0 0 0 0 1 0 0 0 0 1 0 0 0 0 1 0 0 0 0.4 0"/>
<feBlend mode="normal" in2="shape" result="effect1_innerShadow"/>
<feColorMatrix in="SourceAlpha" type="matrix" values="0 0 0 0 0 0 0 0 0 0 0 0 0 0 0 0 0 0 127 0" result="hardAlpha"/>
<feOffset dx="0.5" dy="0.5"/>
<feGaussianBlur stdDeviation="0.25"/>
<feComposite in2="hardAlpha" operator="arithmetic" k2="-1" k3="1"/>
<feColorMatrix type="matrix" values="0 0 0 0 0.127604 0 0 0 0 0.267969 0 0 0 0 0.408333 0 0 0 0.4 0"/>
<feBlend mode="normal" in2="effect1_innerShadow" result="effect2_innerShadow"/>
</filter>
<linearGradient id="paint0_linear" x1="4.84568" y1="87.2283" x2="1.2314" y2="82.7106" gradientUnits="userSpaceOnUse">
<stop stop-color="#48647D"/>
<stop offset="0.234375" stop-color="#6B8299"/>
<stop offset="0.442708" stop-color="#DAE2EB"/>
<stop offset="0.682292" stop-color="#8CA2B7"/>
<stop offset="1" stop-color="#EDF2F7"/>
</linearGradient>
<linearGradient id="paint1_linear" x1="4.84568" y1="70.7002" x2="1.2314" y2="66.1825" gradientUnits="userSpaceOnUse">
<stop stop-color="#48647D"/>
<stop offset="0.234375" stop-color="#6B8299"/>
<stop offset="0.442708" stop-color="#DAE2EB"/>
<stop offset="0.682292" stop-color="#8CA2B7"/>
<stop offset="1" stop-color="#EDF2F7"/>
</linearGradient>
<linearGradient id="paint2_linear" x1="4.84568" y1="54.1673" x2="1.23139" y2="49.6496" gradientUnits="userSpaceOnUse">
<stop stop-color="#48647D"/>
<stop offset="0.234375" stop-color="#6B8299"/>
<stop offset="0.442708" stop-color="#DAE2EB"/>
<stop offset="0.682292" stop-color="#8CA2B7"/>
<stop offset="1" stop-color="#EDF2F7"/>
</linearGradient>
<linearGradient id="paint3_linear" x1="4.84568" y1="37.7686" x2="1.2314" y2="33.2509" gradientUnits="userSpaceOnUse">
<stop stop-color="#48647D"/>
<stop offset="0.234375" stop-color="#6B8299"/>
<stop offset="0.442708" stop-color="#DAE2EB"/>
<stop offset="0.682292" stop-color="#8CA2B7"/>
<stop offset="1" stop-color="#EDF2F7"/>
</linearGradient>
<linearGradient id="paint4_linear" x1="4.84568" y1="21.2356" x2="1.2314" y2="16.7179" gradientUnits="userSpaceOnUse">
<stop stop-color="#48647D"/>
<stop offset="0.234375" stop-color="#6B8299"/>
<stop offset="0.442708" stop-color="#DAE2EB"/>
<stop offset="0.682292" stop-color="#8CA2B7"/>
<stop offset="1" stop-color="#EDF2F7"/>
</linearGradient>
<linearGradient id="paint5_linear" x1="4.84739" y1="4.84135" x2="1.23311" y2="0.323632" gradientUnits="userSpaceOnUse">
<stop stop-color="#48647D"/>
<stop offset="0.234375" stop-color="#6B8299"/>
<stop offset="0.442708" stop-color="#DAE2EB"/>
<stop offset="0.682292" stop-color="#8CA2B7"/>
<stop offset="1" stop-color="#EDF2F7"/>
</linearGradient>
<linearGradient id="paint6_linear" x1="93.3867" y1="87.2283" x2="89.7724" y2="82.7106" gradientUnits="userSpaceOnUse">
<stop stop-color="#48647D"/>
<stop offset="0.234375" stop-color="#6B8299"/>
<stop offset="0.442708" stop-color="#DAE2EB"/>
<stop offset="0.682292" stop-color="#8CA2B7"/>
<stop offset="1" stop-color="#EDF2F7"/>
</linearGradient>
<linearGradient id="paint7_linear" x1="93.3867" y1="70.7002" x2="89.7724" y2="66.1825" gradientUnits="userSpaceOnUse">
<stop stop-color="#48647D"/>
<stop offset="0.234375" stop-color="#6B8299"/>
<stop offset="0.442708" stop-color="#DAE2EB"/>
<stop offset="0.682292" stop-color="#8CA2B7"/>
<stop offset="1" stop-color="#EDF2F7"/>
</linearGradient>
<linearGradient id="paint8_linear" x1="93.3867" y1="54.1673" x2="89.7724" y2="49.6496" gradientUnits="userSpaceOnUse">
<stop stop-color="#48647D"/>
<stop offset="0.234375" stop-color="#6B8299"/>
<stop offset="0.442708" stop-color="#DAE2EB"/>
<stop offset="0.682292" stop-color="#8CA2B7"/>
<stop offset="1" stop-color="#EDF2F7"/>
</linearGradient>
<linearGradient id="paint9_linear" x1="93.3867" y1="37.7686" x2="89.7724" y2="33.2509" gradientUnits="userSpaceOnUse">
<stop stop-color="#48647D"/>
<stop offset="0.234375" stop-color="#6B8299"/>
<stop offset="0.442708" stop-color="#DAE2EB"/>
<stop offset="0.682292" stop-color="#8CA2B7"/>
<stop offset="1" stop-color="#EDF2F7"/>
</linearGradient>
<linearGradient id="paint10_linear" x1="93.3867" y1="21.2356" x2="89.7724" y2="16.7179" gradientUnits="userSpaceOnUse">
<stop stop-color="#48647D"/>
<stop offset="0.234375" stop-color="#6B8299"/>
<stop offset="0.442708" stop-color="#DAE2EB"/>
<stop offset="0.682292" stop-color="#8CA2B7"/>
<stop offset="1" stop-color="#EDF2F7"/>
</linearGradient>
<linearGradient id="paint11_linear" x1="93.3873" y1="4.84135" x2="89.773" y2="0.323637" gradientUnits="userSpaceOnUse">
<stop stop-color="#48647D"/>
<stop offset="0.234375" stop-color="#6B8299"/>
<stop offset="0.442708" stop-color="#DAE2EB"/>
<stop offset="0.682292" stop-color="#8CA2B7"/>
<stop offset="1" stop-color="#EDF2F7"/>
</linearGradient>
<linearGradient id="paint12_linear" x1="75.7611" y1="87.2283" x2="72.1468" y2="82.7106" gradientUnits="userSpaceOnUse">
<stop stop-color="#48647D"/>
<stop offset="0.234375" stop-color="#6B8299"/>
<stop offset="0.442708" stop-color="#DAE2EB"/>
<stop offset="0.682292" stop-color="#8CA2B7"/>
<stop offset="1" stop-color="#EDF2F7"/>
</linearGradient>
<linearGradient id="paint13_linear" x1="75.7611" y1="70.7002" x2="72.1468" y2="66.1825" gradientUnits="userSpaceOnUse">
<stop stop-color="#48647D"/>
<stop offset="0.234375" stop-color="#6B8299"/>
<stop offset="0.442708" stop-color="#DAE2EB"/>
<stop offset="0.682292" stop-color="#8CA2B7"/>
<stop offset="1" stop-color="#EDF2F7"/>
</linearGradient>
<linearGradient id="paint14_linear" x1="75.7611" y1="54.1673" x2="72.1468" y2="49.6496" gradientUnits="userSpaceOnUse">
<stop stop-color="#48647D"/>
<stop offset="0.234375" stop-color="#6B8299"/>
<stop offset="0.442708" stop-color="#DAE2EB"/>
<stop offset="0.682292" stop-color="#8CA2B7"/>
<stop offset="1" stop-color="#EDF2F7"/>
</linearGradient>
<linearGradient id="paint15_linear" x1="75.7611" y1="37.7686" x2="72.1468" y2="33.2509" gradientUnits="userSpaceOnUse">
<stop stop-color="#48647D"/>
<stop offset="0.234375" stop-color="#6B8299"/>
<stop offset="0.442708" stop-color="#DAE2EB"/>
<stop offset="0.682292" stop-color="#8CA2B7"/>
<stop offset="1" stop-color="#EDF2F7"/>
</linearGradient>
<linearGradient id="paint16_linear" x1="75.7611" y1="21.2356" x2="72.1468" y2="16.7179" gradientUnits="userSpaceOnUse">
<stop stop-color="#48647D"/>
<stop offset="0.234375" stop-color="#6B8299"/>
<stop offset="0.442708" stop-color="#DAE2EB"/>
<stop offset="0.682292" stop-color="#8CA2B7"/>
<stop offset="1" stop-color="#EDF2F7"/>
</linearGradient>
<linearGradient id="paint17_linear" x1="75.7603" y1="4.84135" x2="72.1461" y2="0.323633" gradientUnits="userSpaceOnUse">
<stop stop-color="#48647D"/>
<stop offset="0.234375" stop-color="#6B8299"/>
<stop offset="0.442708" stop-color="#DAE2EB"/>
<stop offset="0.682292" stop-color="#8CA2B7"/>
<stop offset="1" stop-color="#EDF2F7"/>
</linearGradient>
<linearGradient id="paint18_linear" x1="57.9989" y1="87.2283" x2="54.3846" y2="82.7106" gradientUnits="userSpaceOnUse">
<stop stop-color="#48647D"/>
<stop offset="0.234375" stop-color="#6B8299"/>
<stop offset="0.442708" stop-color="#DAE2EB"/>
<stop offset="0.682292" stop-color="#8CA2B7"/>
<stop offset="1" stop-color="#EDF2F7"/>
</linearGradient>
<linearGradient id="paint19_linear" x1="57.9989" y1="70.7002" x2="54.3846" y2="66.1825" gradientUnits="userSpaceOnUse">
<stop stop-color="#48647D"/>
<stop offset="0.234375" stop-color="#6B8299"/>
<stop offset="0.442708" stop-color="#DAE2EB"/>
<stop offset="0.682292" stop-color="#8CA2B7"/>
<stop offset="1" stop-color="#EDF2F7"/>
</linearGradient>
<linearGradient id="paint20_linear" x1="57.9989" y1="54.1673" x2="54.3846" y2="49.6496" gradientUnits="userSpaceOnUse">
<stop stop-color="#48647D"/>
<stop offset="0.234375" stop-color="#6B8299"/>
<stop offset="0.442708" stop-color="#DAE2EB"/>
<stop offset="0.682292" stop-color="#8CA2B7"/>
<stop offset="1" stop-color="#EDF2F7"/>
</linearGradient>
<linearGradient id="paint21_linear" x1="57.9989" y1="37.7686" x2="54.3846" y2="33.2509" gradientUnits="userSpaceOnUse">
<stop stop-color="#48647D"/>
<stop offset="0.234375" stop-color="#6B8299"/>
<stop offset="0.442708" stop-color="#DAE2EB"/>
<stop offset="0.682292" stop-color="#8CA2B7"/>
<stop offset="1" stop-color="#EDF2F7"/>
</linearGradient>
<linearGradient id="paint22_linear" x1="57.9989" y1="21.2356" x2="54.3846" y2="16.7179" gradientUnits="userSpaceOnUse">
<stop stop-color="#48647D"/>
<stop offset="0.234375" stop-color="#6B8299"/>
<stop offset="0.442708" stop-color="#DAE2EB"/>
<stop offset="0.682292" stop-color="#8CA2B7"/>
<stop offset="1" stop-color="#EDF2F7"/>
</linearGradient>
<linearGradient id="paint23_linear" x1="57.998" y1="4.84135" x2="54.3837" y2="0.323633" gradientUnits="userSpaceOnUse">
<stop stop-color="#48647D"/>
<stop offset="0.234375" stop-color="#6B8299"/>
<stop offset="0.442708" stop-color="#DAE2EB"/>
<stop offset="0.682292" stop-color="#8CA2B7"/>
<stop offset="1" stop-color="#EDF2F7"/>
</linearGradient>
<linearGradient id="paint24_linear" x1="40.2365" y1="87.2283" x2="36.6223" y2="82.7106" gradientUnits="userSpaceOnUse">
<stop stop-color="#48647D"/>
<stop offset="0.234375" stop-color="#6B8299"/>
<stop offset="0.442708" stop-color="#DAE2EB"/>
<stop offset="0.682292" stop-color="#8CA2B7"/>
<stop offset="1" stop-color="#EDF2F7"/>
</linearGradient>
<linearGradient id="paint25_linear" x1="40.2365" y1="70.7002" x2="36.6223" y2="66.1825" gradientUnits="userSpaceOnUse">
<stop stop-color="#48647D"/>
<stop offset="0.234375" stop-color="#6B8299"/>
<stop offset="0.442708" stop-color="#DAE2EB"/>
<stop offset="0.682292" stop-color="#8CA2B7"/>
<stop offset="1" stop-color="#EDF2F7"/>
</linearGradient>
<linearGradient id="paint26_linear" x1="40.2365" y1="54.1673" x2="36.6223" y2="49.6496" gradientUnits="userSpaceOnUse">
<stop stop-color="#48647D"/>
<stop offset="0.234375" stop-color="#6B8299"/>
<stop offset="0.442708" stop-color="#DAE2EB"/>
<stop offset="0.682292" stop-color="#8CA2B7"/>
<stop offset="1" stop-color="#EDF2F7"/>
</linearGradient>
<linearGradient id="paint27_linear" x1="40.2365" y1="37.7686" x2="36.6223" y2="33.2509" gradientUnits="userSpaceOnUse">
<stop stop-color="#48647D"/>
<stop offset="0.234375" stop-color="#6B8299"/>
<stop offset="0.442708" stop-color="#DAE2EB"/>
<stop offset="0.682292" stop-color="#8CA2B7"/>
<stop offset="1" stop-color="#EDF2F7"/>
</linearGradient>
<linearGradient id="paint28_linear" x1="40.2365" y1="21.2356" x2="36.6223" y2="16.7179" gradientUnits="userSpaceOnUse">
<stop stop-color="#48647D"/>
<stop offset="0.234375" stop-color="#6B8299"/>
<stop offset="0.442708" stop-color="#DAE2EB"/>
<stop offset="0.682292" stop-color="#8CA2B7"/>
<stop offset="1" stop-color="#EDF2F7"/>
</linearGradient>
<linearGradient id="paint29_linear" x1="40.2357" y1="4.84135" x2="36.6214" y2="0.32363" gradientUnits="userSpaceOnUse">
<stop stop-color="#48647D"/>
<stop offset="0.234375" stop-color="#6B8299"/>
<stop offset="0.442708" stop-color="#DAE2EB"/>
<stop offset="0.682292" stop-color="#8CA2B7"/>
<stop offset="1" stop-color="#EDF2F7"/>
</linearGradient>
<linearGradient id="paint30_linear" x1="22.4745" y1="87.2283" x2="18.8602" y2="82.7106" gradientUnits="userSpaceOnUse">
<stop stop-color="#48647D"/>
<stop offset="0.234375" stop-color="#6B8299"/>
<stop offset="0.442708" stop-color="#DAE2EB"/>
<stop offset="0.682292" stop-color="#8CA2B7"/>
<stop offset="1" stop-color="#EDF2F7"/>
</linearGradient>
<linearGradient id="paint31_linear" x1="22.4745" y1="70.7002" x2="18.8602" y2="66.1825" gradientUnits="userSpaceOnUse">
<stop stop-color="#48647D"/>
<stop offset="0.234375" stop-color="#6B8299"/>
<stop offset="0.442708" stop-color="#DAE2EB"/>
<stop offset="0.682292" stop-color="#8CA2B7"/>
<stop offset="1" stop-color="#EDF2F7"/>
</linearGradient>
<linearGradient id="paint32_linear" x1="22.4745" y1="54.1673" x2="18.8602" y2="49.6496" gradientUnits="userSpaceOnUse">
<stop stop-color="#48647D"/>
<stop offset="0.234375" stop-color="#6B8299"/>
<stop offset="0.442708" stop-color="#DAE2EB"/>
<stop offset="0.682292" stop-color="#8CA2B7"/>
<stop offset="1" stop-color="#EDF2F7"/>
</linearGradient>
<linearGradient id="paint33_linear" x1="22.4745" y1="37.7686" x2="18.8602" y2="33.2509" gradientUnits="userSpaceOnUse">
<stop stop-color="#48647D"/>
<stop offset="0.234375" stop-color="#6B8299"/>
<stop offset="0.442708" stop-color="#DAE2EB"/>
<stop offset="0.682292" stop-color="#8CA2B7"/>
<stop offset="1" stop-color="#EDF2F7"/>
</linearGradient>
<linearGradient id="paint34_linear" x1="22.4745" y1="21.2356" x2="18.8602" y2="16.7179" gradientUnits="userSpaceOnUse">
<stop stop-color="#48647D"/>
<stop offset="0.234375" stop-color="#6B8299"/>
<stop offset="0.442708" stop-color="#DAE2EB"/>
<stop offset="0.682292" stop-color="#8CA2B7"/>
<stop offset="1" stop-color="#EDF2F7"/>
</linearGradient>
<linearGradient id="paint35_linear" x1="22.4735" y1="4.84135" x2="18.8592" y2="0.323632" gradientUnits="userSpaceOnUse">
<stop stop-color="#48647D"/>
<stop offset="0.234375" stop-color="#6B8299"/>
<stop offset="0.442708" stop-color="#DAE2EB"/>
<stop offset="0.682292" stop-color="#8CA2B7"/>
<stop offset="1" stop-color="#EDF2F7"/>
</linearGradient>
</defs>
</svg>
