<svg width="79" height="79" viewBox="0 0 79 79" fill="none" xmlns="http://www.w3.org/2000/svg">
<path d="M49.0426 0H66.1955C67.2628 0 68.1282 0.865384 68.1282 1.93272V77.0673C68.1282 78.1346 67.2628 79 66.1955 79H49.0426C47.9752 79 47.1099 78.1346 47.1099 77.0673V1.93272C47.1099 0.865384 47.9752 0 49.0426 0Z" fill="white"/>
<path d="M12.8043 0H29.9572C31.0245 0 31.8899 0.865384 31.8899 1.93272V77.0673C31.8899 78.1346 31.0245 79 29.9572 79H12.8043C11.737 79 10.8716 78.1346 10.8716 77.0673V1.93272C10.8716 0.865384 11.737 0 12.8043 0Z" fill="white"/>
</svg>
