<svg width="19" height="27" viewBox="0 0 19 27" fill="none" xmlns="http://www.w3.org/2000/svg">
<path d="M12.6666 0H18.3586C18.7128 0 19 0.287169 19 0.641355V25.574C19 25.9282 18.7128 26.2154 18.3586 26.2154H12.6666C12.3124 26.2154 12.0253 25.9282 12.0253 25.574V0.641355C12.0253 0.287169 12.3124 0 12.6666 0Z" fill="#6EB2C1"/>
<path d="M0.641355 0H6.33338C6.68756 0 6.97473 0.287169 6.97473 0.641355V25.574C6.97473 25.9282 6.68756 26.2154 6.33338 26.2154H0.641355C0.287169 26.2154 0 25.9282 0 25.574V0.641355C0 0.287169 0.287169 0 0.641355 0Z" fill="#6EB2C1"/>
</svg>
